<?xml version="1.0" encoding="UTF-8" standalone="no"?>
<svg
   xmlns:dc="http://purl.org/dc/elements/1.1/"
   xmlns:cc="http://creativecommons.org/ns#"
   xmlns:rdf="http://www.w3.org/1999/02/22-rdf-syntax-ns#"
   xmlns:svg="http://www.w3.org/2000/svg"
   xmlns="http://www.w3.org/2000/svg"
   xmlns:sodipodi="http://sodipodi.sourceforge.net/DTD/sodipodi-0.dtd"
   xmlns:inkscape="http://www.inkscape.org/namespaces/inkscape"
   inkscape:export-ydpi="96"
   inkscape:export-xdpi="96"
   inkscape:export-filename="/Users/devinhaynes/Documents/tidalSitesSquareLogo.png"
   sodipodi:docname="tidalSitesSquareLogo.svg"
   inkscape:version="1.1-dev (f9311a1, 2019-12-25)"
   id="svg1044"
   version="1.1"
   viewBox="0 0 66.145828 65.086723"
   height="65.086723mm"
   width="66.145828mm">
  <defs
     id="defs1038" />
  <sodipodi:namedview
     fit-margin-bottom="0"
     fit-margin-right="0"
     fit-margin-left="0"
     fit-margin-top="0"
     inkscape:window-maximized="0"
     inkscape:window-y="23"
     inkscape:window-x="0"
     inkscape:window-height="775"
     inkscape:window-width="1440"
     showgrid="false"
     inkscape:document-rotation="0"
     inkscape:current-layer="layer1"
     inkscape:document-units="px"
     inkscape:cy="324.40384"
     inkscape:cx="-714.08324"
     inkscape:zoom="0.35"
     inkscape:pageshadow="2"
     inkscape:pageopacity="0.0"
     borderopacity="1.0"
     bordercolor="#666666"
     pagecolor="#ffffff"
     id="base" />
  <metadata
     id="metadata1041">
    <rdf:RDF>
      <cc:Work
         rdf:about="">
        <dc:format>image/svg+xml</dc:format>
        <dc:type
           rdf:resource="http://purl.org/dc/dcmitype/StillImage" />
        <dc:title></dc:title>
      </cc:Work>
    </rdf:RDF>
  </metadata>
  <g
     transform="translate(-64.20238,-93.328864)"
     id="layer1"
     inkscape:groupmode="layer"
     inkscape:label="Layer 1">
    <path
       inkscape:connector-curvature="0"
       id="rect1427"
       style="fill:#5a5a5a;fill-opacity:1;stroke-width:0.641026;stroke-opacity:0.764706;stop-color:#000000"
       d="m 69.460193,93.328864 c -2.912784,0 -5.257813,2.345029 -5.257813,5.257825 v 55.630201 c 0,1.71937 0.817549,3.24055 2.086173,4.1987 22.370839,-4.84362 14.030656,-21.75482 44.877367,-22.35651 -17.512584,13.34618 6.18554,16.17329 18.69938,20.3662 0.30941,-0.67092 0.48291,-1.41854 0.48291,-2.20839 V 98.586689 c 0,-2.912798 -2.34476,-5.257825 -5.25756,-5.257825 z m 42.027157,2.579688 A 16.536458,16.536458 0 0 1 128.02381,112.445 16.536458,16.536458 0 0 1 111.48735,128.98148 16.536458,16.536458 0 0 1 94.950892,112.445 16.536458,16.536458 0 0 1 111.48735,95.908552 Z" />
  </g>
</svg>
